<svg width="24" height="25" viewBox="0 0 24 25" fill="none" xmlns="http://www.w3.org/2000/svg">
<path fill-rule="evenodd" clip-rule="evenodd" d="M12.0001 4.5C11.7349 4.5 11.4805 4.60536 11.293 4.79289C11.1054 4.98043 11.0001 5.23478 11.0001 5.5C11.0001 5.88669 10.7771 6.23873 10.4276 6.40403C9.44321 6.86948 8.60408 7.59402 8.00009 8.5C7.40028 9.39972 7.05484 10.4447 7.00009 11.5244V14.5C7.00009 14.5402 6.99767 14.5803 6.99285 14.6202C6.91259 15.2832 6.70049 15.9222 6.37031 16.5H17.6299C17.2997 15.9222 17.0876 15.2832 17.0073 14.6202C17.0025 14.5803 17.0001 14.5402 17.0001 14.5V11.5244C16.9453 10.4447 16.5999 9.39972 16.0001 8.5C15.3961 7.59402 14.557 6.86948 13.5726 6.40403C13.223 6.23873 13.0001 5.88669 13.0001 5.5C13.0001 5.23478 12.8947 4.98043 12.7072 4.79289C12.5197 4.60536 12.2653 4.5 12.0001 4.5ZM14.0001 18.5H10.0001C10.0001 19.0304 10.2108 19.5391 10.5859 19.9142C10.9609 20.2893 11.4697 20.5 12.0001 20.5C12.5305 20.5 13.0392 20.2893 13.4143 19.9142C13.7894 19.5391 14.0001 19.0304 14.0001 18.5ZM8.00009 18.5C8.00009 19.5609 8.42152 20.5783 9.17166 21.3284C9.92181 22.0786 10.9392 22.5 12.0001 22.5C13.061 22.5 14.0784 22.0786 14.8285 21.3284C15.5787 20.5783 16.0001 19.5609 16.0001 18.5H20.0001C20.4542 18.5 20.8514 18.194 20.9671 17.7548C21.0828 17.3156 20.888 16.8536 20.4928 16.6298C20.0841 16.3984 19.7355 16.0742 19.475 15.6834C19.2248 15.3082 19.0626 14.8815 19.0001 14.4354V11.5C19.0001 11.4844 18.9997 11.4687 18.999 11.4531C18.9309 10.0029 18.4695 8.59857 17.6642 7.3906C16.9637 6.33991 16.0261 5.47224 14.9301 4.85572C14.808 4.30059 14.5296 3.78688 14.1214 3.37868C13.5588 2.81607 12.7957 2.5 12.0001 2.5C11.2044 2.5 10.4414 2.81607 9.87877 3.37868C9.47057 3.78688 9.19216 4.30059 9.07008 4.85572C7.97412 5.47224 7.03645 6.33991 6.33599 7.3906C5.53068 8.59857 5.06926 10.0029 5.00119 11.4531C5.00046 11.4687 5.00009 11.4844 5.00009 11.5V14.4353C4.93762 14.8815 4.7754 15.3082 4.52523 15.6834C4.2647 16.0742 3.91604 16.3984 3.50734 16.6298C3.11214 16.8536 2.91738 17.3156 3.03309 17.7548C3.14881 18.194 3.54593 18.5 4.00009 18.5H8.00009Z" fill="#747474"/>
</svg>
