<svg width="14" height="14" viewBox="0 0 14 14" fill="none" xmlns="http://www.w3.org/2000/svg">
<path d="M7.00005 8.4L2.10005 13.3C1.91672 13.4833 1.68338 13.575 1.40005 13.575C1.11672 13.575 0.883382 13.4833 0.700049 13.3C0.516715 13.1167 0.425049 12.8833 0.425049 12.6C0.425049 12.3167 0.516715 12.0833 0.700049 11.9L5.60005 7L0.700049 2.1C0.516715 1.91667 0.425049 1.68334 0.425049 1.4C0.425049 1.11667 0.516715 0.883336 0.700049 0.700003C0.883382 0.51667 1.11672 0.425003 1.40005 0.425003C1.68338 0.425003 1.91672 0.51667 2.10005 0.700003L7.00005 5.6L11.9 0.700003C12.0834 0.51667 12.3167 0.425003 12.6 0.425003C12.8834 0.425003 13.1167 0.51667 13.3 0.700003C13.4834 0.883336 13.575 1.11667 13.575 1.4C13.575 1.68334 13.4834 1.91667 13.3 2.1L8.40005 7L13.3 11.9C13.4834 12.0833 13.575 12.3167 13.575 12.6C13.575 12.8833 13.4834 13.1167 13.3 13.3C13.1167 13.4833 12.8834 13.575 12.6 13.575C12.3167 13.575 12.0834 13.4833 11.9 13.3L7.00005 8.4Z" fill="#747474"/>
</svg>
