<svg width="12" height="7" viewBox="0 0 12 7" fill="none" xmlns="http://www.w3.org/2000/svg">
<path d="M5.9998 6.94999C5.86647 6.94999 5.74147 6.92916 5.6248 6.88749C5.50814 6.84583 5.3998 6.77499 5.2998 6.67499L0.699805 2.07499C0.516471 1.89166 0.424805 1.65833 0.424805 1.37499C0.424805 1.09166 0.516471 0.858327 0.699805 0.674994C0.883138 0.491661 1.11647 0.399994 1.3998 0.399994C1.68314 0.399994 1.91647 0.491661 2.0998 0.674994L5.9998 4.57499L9.89981 0.674994C10.0831 0.491661 10.3165 0.399994 10.5998 0.399994C10.8831 0.399994 11.1165 0.491661 11.2998 0.674994C11.4831 0.858327 11.5748 1.09166 11.5748 1.37499C11.5748 1.65833 11.4831 1.89166 11.2998 2.07499L6.6998 6.67499C6.5998 6.77499 6.49147 6.84583 6.3748 6.88749C6.25814 6.92916 6.13314 6.94999 5.9998 6.94999Z" fill="black"/>
</svg>
