<svg width="24" height="24" viewBox="0 0 24 24" fill="none" xmlns="http://www.w3.org/2000/svg">
<path fill-rule="evenodd" clip-rule="evenodd" d="M9 2C9.55228 2 10 2.44772 10 3V4H11C11.5523 4 12 4.44772 12 5C12 5.55228 11.5523 6 11 6H9.96409C9.82107 7.97938 9.2571 9.78883 8.38337 11.1868C8.35403 11.2337 8.32427 11.2803 8.29408 11.3265C9.236 11.7144 10.4127 11.9681 11.7245 12.0003C12.2767 12.0139 12.7133 12.4724 12.6997 13.0245C12.6861 13.5767 12.2276 14.0133 11.6755 13.9997C9.8896 13.9559 8.23087 13.559 6.91466 12.8935C6.08473 13.5766 5.10007 14 4 14C3.44772 14 3 13.5523 3 13C3 12.4477 3.44772 12 4 12C4.39033 12 4.79264 11.891 5.18789 11.6659C4.47295 10.9415 4 10.0418 4 9C4 8.44772 4.44772 8 5 8C5.55228 8 6 8.44772 6 9C6 9.38079 6.17691 9.82002 6.6041 10.2566C6.63207 10.2141 6.65983 10.1708 6.68738 10.1267C7.34694 9.07149 7.8194 7.63725 7.95804 6H4C3.44772 6 3 5.55228 3 5C3 4.44772 3.44772 4 4 4H8V3C8 2.44772 8.44772 2 9 2ZM16 10C16.3952 10 16.7533 10.2327 16.9138 10.5939L20.9138 19.5939C21.1381 20.0985 20.9108 20.6895 20.4061 20.9138C19.9015 21.1381 19.3105 20.9108 19.0862 20.4061L18.4612 19H13.5388L12.9138 20.4061C12.6895 20.9108 12.0985 21.1381 11.5939 20.9138C11.0892 20.6895 10.8619 20.0985 11.0862 19.5939L15.0862 10.5939C15.2467 10.2327 15.6048 10 16 10ZM14.4277 17H17.5723L16 13.4622L14.4277 17Z" fill="#747474"/>
</svg>
