<svg width="18" height="19" viewBox="0 0 18 19" fill="none" xmlns="http://www.w3.org/2000/svg">
<path fill-rule="evenodd" clip-rule="evenodd" d="M10.3447 2.96967C10.6376 2.67678 11.1124 2.67678 11.4053 2.96967L15.5303 7.09467C15.8232 7.38756 15.8232 7.86244 15.5303 8.15533C15.2915 8.39418 14.9316 8.43825 14.6481 8.28755L12.2702 10.6655L11.2022 13.5133C11.1647 13.6136 11.106 13.7046 11.0303 13.7803L9.90533 14.9053C9.61244 15.1982 9.13756 15.1982 8.84467 14.9053L6.75 12.8107L3.90533 15.6553C3.61244 15.9482 3.13756 15.9482 2.84467 15.6553C2.55178 15.3624 2.55178 14.8876 2.84467 14.5947L5.68934 11.75L3.59467 9.65533C3.30178 9.36244 3.30178 8.88756 3.59467 8.59467L4.71967 7.46967C4.79537 7.39396 4.88641 7.33535 4.98666 7.29775L7.83454 6.2298L10.2125 3.85189C10.0617 3.56838 10.1058 3.20852 10.3447 2.96967ZM11.25 4.93566L8.78033 7.40533C8.70463 7.48104 8.61359 7.53965 8.51334 7.57725L5.66546 8.6452L5.18566 9.125L9.375 13.3143L9.8548 12.8345L10.9228 9.98666C10.9603 9.88641 11.019 9.79537 11.0947 9.71967L13.5643 7.25L11.25 4.93566Z" fill="#D7D7D7"/>
</svg>
