<svg width="12" height="15" viewBox="0 0 12 15" fill="none" xmlns="http://www.w3.org/2000/svg">
<path d="M2.25 14.25C1.8375 14.25 1.48438 14.1031 1.19062 13.8094C0.896875 13.5156 0.75 13.1625 0.75 12.75V3C0.5375 3 0.359375 2.92813 0.215625 2.78438C0.071875 2.64063 0 2.4625 0 2.25C0 2.0375 0.071875 1.85938 0.215625 1.71563C0.359375 1.57188 0.5375 1.5 0.75 1.5H3.75C3.75 1.2875 3.82187 1.10938 3.96562 0.965625C4.10938 0.821875 4.2875 0.75 4.5 0.75H7.5C7.7125 0.75 7.89063 0.821875 8.03438 0.965625C8.17813 1.10938 8.25 1.2875 8.25 1.5H11.25C11.4625 1.5 11.6406 1.57188 11.7844 1.71563C11.9281 1.85938 12 2.0375 12 2.25C12 2.4625 11.9281 2.64063 11.7844 2.78438C11.6406 2.92813 11.4625 3 11.25 3V12.75C11.25 13.1625 11.1031 13.5156 10.8094 13.8094C10.5156 14.1031 10.1625 14.25 9.75 14.25H2.25ZM9.75 3H2.25V12.75H9.75V3ZM3.75 11.25H5.25V4.5H3.75V11.25ZM6.75 11.25H8.25V4.5H6.75V11.25Z" fill="#D7D7D7"/>
</svg>
