<svg width="20" height="21" viewBox="0 0 20 21" fill="none" xmlns="http://www.w3.org/2000/svg">
<path fill-rule="evenodd" clip-rule="evenodd" d="M15.2636 4.88449C13.7826 3.59207 11.8777 2.89012 9.91218 2.91257C7.94669 2.93502 6.05825 3.6803 4.60716 5.0062C3.15608 6.33211 2.24393 8.14584 2.04473 10.1013C1.98877 10.6508 1.49799 11.0508 0.948544 10.9949C0.399102 10.9389 -0.000937801 10.4481 0.0550296 9.89867C0.30402 7.45429 1.44421 5.18713 3.25807 3.52974C5.07192 1.87236 7.43247 0.940763 9.88934 0.912701C12.3462 0.884639 14.7274 1.76207 16.5787 3.3776C18.4299 4.99312 19.6216 7.23364 19.9263 9.6717C20.2311 12.1098 19.6276 14.5747 18.231 16.5962C16.8344 18.6177 14.7424 20.0543 12.3542 20.6318C9.96605 21.2094 7.44882 20.8875 5.2828 19.7276C4.0101 19.0461 2.91101 18.1033 2.04988 16.9733V19C2.04988 19.5523 1.60217 20 1.04988 20C0.497597 20 0.0498817 19.5523 0.0498817 19V14C0.0498817 13.4477 0.497597 13 1.04988 13H1.52655C1.54208 12.9996 1.55758 12.9996 1.57304 13H6.04988C6.60217 13 7.04988 13.4477 7.04988 14C7.04988 14.5523 6.60217 15 6.04988 15H3.12686C3.86637 16.244 4.93482 17.2726 6.22695 17.9645C7.95977 18.8924 9.97355 19.1499 11.8841 18.6879C13.7946 18.2258 15.4682 17.0766 16.5855 15.4594C17.7028 13.8422 18.1856 11.8702 17.9418 9.91977C17.698 7.96933 16.7446 6.17691 15.2636 4.88449ZM9.99989 6C10.5522 6 10.9999 6.44772 10.9999 7V10.5858L12.707 12.2929C13.0975 12.6834 13.0975 13.3166 12.707 13.7071C12.3165 14.0976 11.6833 14.0976 11.2928 13.7071L9.29279 11.7071C9.10525 11.5196 8.99989 11.2652 8.99989 11V7C8.99989 6.44772 9.44761 6 9.99989 6Z" fill="#747474"/>
</svg>
