<svg width="24" height="24" viewBox="0 0 24 24" fill="none" xmlns="http://www.w3.org/2000/svg">
<path fill-rule="evenodd" clip-rule="evenodd" d="M15 5C15 3.32672 16.3267 2 18 2C19.6733 2 21 3.32672 21 5V17C21 17.2652 20.8946 17.5196 20.7071 17.7071L18.7071 19.7071C18.5196 19.8946 18.2652 20 18 20H5C4.20435 20 3.44129 19.6839 2.87868 19.1213C2.31607 18.5587 2 17.7956 2 17C2 16.2044 2.31607 15.4413 2.87868 14.8787C3.44129 14.3161 4.20435 14 5 14H9C9.26522 14 9.51957 13.8946 9.70711 13.7071C9.89464 13.5196 10 13.2652 10 13C10 12.7348 9.89464 12.4804 9.70711 12.2929C9.51957 12.1054 9.26522 12 9 12H6C5.44772 12 5 11.5523 5 11C5 10.4477 5.44772 10 6 10H9C9.79565 10 10.5587 10.3161 11.1213 10.8787C11.6839 11.4413 12 12.2043 12 13C12 13.7957 11.6839 14.5587 11.1213 15.1213C10.5587 15.6839 9.79565 16 9 16H5C4.73478 16 4.48043 16.1054 4.29289 16.2929C4.10536 16.4804 4 16.7348 4 17C4 17.2652 4.10536 17.5196 4.29289 17.7071C4.48043 17.8946 4.73478 18 5 18H15.5858L15.2929 17.7071C15.1054 17.5196 15 17.2652 15 17V5ZM17 8V16.5858L18 17.5858L19 16.5858V8H17ZM19 6H17V5C17 4.43128 17.4313 4 18 4C18.5687 4 19 4.43128 19 5V6Z" fill="#9373EE"/>
</svg>
