<svg width="44" height="44" viewBox="0 0 44 44" fill="none" xmlns="http://www.w3.org/2000/svg">
<path fill-rule="evenodd" clip-rule="evenodd" d="M15.9616 2.57502C17.8663 2.2333 19.8304 2.57179 21.5108 3.53133C22.5676 4.13477 23.4698 4.9597 24.1615 5.94005L25.3738 5.23223C27.0502 4.26446 29.0134 3.91683 30.9202 4.2501C32.8269 4.58337 34.5559 5.57634 35.8046 7.05537C37.0533 8.5344 37.7423 10.4053 37.7512 12.341C37.7568 13.5681 37.4888 14.7718 36.9771 15.8683L38.0663 16.5038C38.0675 16.5046 38.0688 16.5053 38.0701 16.5061C39.9515 17.5942 41.3241 19.3846 41.8865 21.4841C42.4493 23.585 42.1545 25.8234 41.0672 27.7071C39.6955 30.0831 37.3666 31.5263 34.8337 31.7722V33.3062C34.8327 35.2412 34.1517 37.1153 32.9097 38.5992C31.6677 40.0831 29.9438 41.0833 28.0391 41.425C26.1345 41.7667 24.1703 41.4282 22.49 40.4687C21.4332 39.8653 20.5309 39.0403 19.8393 38.06L18.6348 38.7632L18.627 38.7677C16.9507 39.7355 14.9874 40.0832 13.0807 39.7499C11.1739 39.4166 9.44496 38.4236 8.19624 36.9446C6.94752 35.4656 6.25849 33.5947 6.24964 31.659C6.24388 30.3974 6.52729 29.1607 7.06736 28.0397L5.92686 27.3671C4.04746 26.2787 2.67628 24.4894 2.11429 22.3913C1.55154 20.2904 1.84626 18.0519 2.93364 16.1683C4.30527 13.7923 6.63413 12.3491 9.16707 12.1032V10.6939C9.16806 8.75881 9.84906 6.88471 11.091 5.40084C12.333 3.91696 14.057 2.91675 15.9616 2.57502ZM12.8337 14.0192C12.8341 13.9971 12.8341 13.9751 12.8337 13.9531V10.6948C12.8343 9.61959 13.2127 8.57876 13.9028 7.75424C14.5929 6.92971 15.5508 6.37394 16.6092 6.18406C17.6675 5.99418 18.7589 6.18226 19.6926 6.71544C20.1866 6.99755 20.6199 7.36677 20.9738 7.80125L17.4093 9.88244C16.8465 10.2111 16.5004 10.8139 16.5004 11.4657V19.7204C16.5 19.7428 16.5 19.7653 16.5004 19.7877V21.0311L12.8337 18.9227V14.0192ZM6.10918 18.0014C6.81283 16.7825 7.93219 16.0256 9.16707 15.8021L6.10918 18.0014ZM9.16707 15.8021V19.9834C9.16707 20.6395 9.51772 21.2456 10.0865 21.5727L17.3933 25.7741C17.4118 25.7852 17.4305 25.7959 17.4493 25.8063L18.2744 26.2807L14.6923 28.2795L7.78286 24.2048L7.7686 24.1965C6.72716 23.5949 5.96729 22.6043 5.6561 21.4426C5.34491 20.2808 5.50789 19.043 6.10918 18.0014M22.7555 27.9791C22.8503 27.9364 22.9417 27.8855 23.0286 27.8267L23.8338 27.3774V31.4818L16.7938 35.5922C16.7927 35.5929 16.7915 35.5936 16.7903 35.5943C15.8596 36.1305 14.7701 36.3229 13.712 36.138C12.6524 35.9528 11.6918 35.401 10.9979 34.5792C10.3041 33.7574 9.92119 32.7178 9.91627 31.6422C9.91354 31.0458 10.0271 30.4594 10.2459 29.9141L13.7358 31.9722C14.2969 32.3031 14.9915 32.3114 15.5604 31.994L22.7555 27.9791ZM27.5004 24.287V32.5343C27.5004 33.1861 27.1544 33.7889 26.5915 34.1175L23.0269 36.1988C23.3809 36.6333 23.8141 37.0025 24.3082 37.2846C25.2419 37.8178 26.3333 38.0059 27.3916 37.816C28.4499 37.6261 29.4078 37.0703 30.098 36.2458C30.7881 35.4213 31.1665 34.3804 31.167 33.3052V29.9198C31.1667 29.8994 31.1667 29.8791 31.167 29.8587V24.9095L27.5004 22.8623V24.2197C27.5008 24.2422 27.5008 24.2646 27.5004 24.287ZM23.8338 23.1786L22.0075 24.1976L20.1671 23.1394V20.8136L21.9733 19.7763L23.8338 20.8151V23.1786ZM25.681 17.6469L33.8941 22.2326C34.4742 22.5565 34.8337 23.1689 34.8337 23.8333V28.0733C36.0686 27.8498 37.188 27.0929 37.8916 25.874C38.4929 24.8323 38.6559 23.5946 38.3447 22.4328C38.0335 21.271 37.2737 20.2804 36.2322 19.6789L36.2252 19.6748L29.2439 15.6007L25.681 17.6469ZM20.1671 16.5853L28.3382 11.8926C28.9075 11.5656 29.6082 11.568 30.1753 11.8989L33.7861 14.0061C33.9845 13.4835 34.0872 12.9252 34.0846 12.3577C34.0796 11.2822 33.6968 10.2426 33.0029 9.42077C32.3091 8.59894 31.3484 8.04719 30.2889 7.86201C29.2307 7.67706 28.1412 7.86952 27.2105 8.40574C27.2093 8.40641 27.2082 8.40708 27.207 8.40775L20.1671 12.5182V16.5853Z" fill="url(#paint0_linear_6_3916)"/>
<defs>
<linearGradient id="paint0_linear_6_3916" x1="1.83496" y1="2.44531" x2="49.9308" y2="24.987" gradientUnits="userSpaceOnUse">
<stop stop-color="#4D84FF"/>
<stop offset="1" stop-color="#DE8FFF"/>
</linearGradient>
</defs>
</svg>
