<svg width="196" height="52" viewBox="0 0 196 52" fill="none" xmlns="http://www.w3.org/2000/svg">
<path d="M1.632 34V17.2H4.704V31.6H12.144V34H1.632ZM19.9517 34.288C18.7997 34.288 17.7597 34.024 16.8317 33.496C15.9197 32.968 15.1917 32.24 14.6477 31.312C14.1197 30.368 13.8557 29.28 13.8557 28.048C13.8557 26.816 14.1277 25.736 14.6717 24.808C15.2157 23.864 15.9437 23.128 16.8557 22.6C17.7837 22.072 18.8237 21.808 19.9757 21.808C21.1117 21.808 22.1357 22.072 23.0477 22.6C23.9757 23.128 24.7037 23.864 25.2317 24.808C25.7757 25.736 26.0477 26.816 26.0477 28.048C26.0477 29.28 25.7757 30.368 25.2317 31.312C24.7037 32.24 23.9757 32.968 23.0477 33.496C22.1197 34.024 21.0877 34.288 19.9517 34.288ZM19.9517 31.624C20.7517 31.624 21.4477 31.328 22.0397 30.736C22.6317 30.128 22.9277 29.232 22.9277 28.048C22.9277 26.864 22.6317 25.976 22.0397 25.384C21.4477 24.776 20.7597 24.472 19.9757 24.472C19.1597 24.472 18.4557 24.776 17.8637 25.384C17.2877 25.976 16.9997 26.864 16.9997 28.048C16.9997 29.232 17.2877 30.128 17.8637 30.736C18.4557 31.328 19.1517 31.624 19.9517 31.624ZM33.0844 30.448C32.5084 30.448 31.9724 30.384 31.4764 30.256L30.5884 31.144C30.8604 31.288 31.2284 31.408 31.6924 31.504C32.1564 31.6 32.9084 31.696 33.9484 31.792C35.5324 31.936 36.6844 32.312 37.4044 32.92C38.1244 33.528 38.4844 34.368 38.4844 35.44C38.4844 36.144 38.2924 36.808 37.9084 37.432C37.5244 38.072 36.9324 38.584 36.1324 38.968C35.3324 39.368 34.3084 39.568 33.0604 39.568C31.3644 39.568 29.9964 39.248 28.9564 38.608C27.9164 37.984 27.3964 37.04 27.3964 35.776C27.3964 34.704 27.9164 33.776 28.9564 32.992C28.6364 32.848 28.3564 32.696 28.1164 32.536C27.8924 32.376 27.6924 32.208 27.5164 32.032V31.48L29.6044 29.272C28.6764 28.456 28.2124 27.408 28.2124 26.128C28.2124 25.328 28.4044 24.6 28.7884 23.944C29.1884 23.288 29.7484 22.768 30.4684 22.384C31.1884 22 32.0604 21.808 33.0844 21.808C33.7564 21.808 34.3804 21.904 34.9564 22.096H39.4684V23.968L37.4284 24.112C37.7484 24.72 37.9084 25.392 37.9084 26.128C37.9084 26.928 37.7164 27.656 37.3324 28.312C36.9484 28.968 36.3884 29.488 35.6524 29.872C34.9324 30.256 34.0764 30.448 33.0844 30.448ZM33.0844 28.096C33.7084 28.096 34.2204 27.928 34.6204 27.592C35.0364 27.256 35.2444 26.776 35.2444 26.152C35.2444 25.528 35.0364 25.048 34.6204 24.712C34.2204 24.376 33.7084 24.208 33.0844 24.208C32.4284 24.208 31.9004 24.376 31.5004 24.712C31.1004 25.048 30.9004 25.528 30.9004 26.152C30.9004 26.776 31.1004 27.256 31.5004 27.592C31.9004 27.928 32.4284 28.096 33.0844 28.096ZM30.2044 35.464C30.2044 36.056 30.4764 36.496 31.0204 36.784C31.5804 37.088 32.2604 37.24 33.0604 37.24C33.8284 37.24 34.4524 37.08 34.9324 36.76C35.4124 36.456 35.6524 36.04 35.6524 35.512C35.6524 35.08 35.4924 34.72 35.1724 34.432C34.8684 34.144 34.2524 33.968 33.3244 33.904C32.6684 33.856 32.0604 33.784 31.5004 33.688C31.0364 33.944 30.7004 34.224 30.4924 34.528C30.3004 34.832 30.2044 35.144 30.2044 35.464ZM46.9517 34.288C45.7997 34.288 44.7597 34.024 43.8317 33.496C42.9197 32.968 42.1917 32.24 41.6477 31.312C41.1197 30.368 40.8557 29.28 40.8557 28.048C40.8557 26.816 41.1277 25.736 41.6717 24.808C42.2157 23.864 42.9437 23.128 43.8557 22.6C44.7837 22.072 45.8237 21.808 46.9757 21.808C48.1117 21.808 49.1357 22.072 50.0477 22.6C50.9757 23.128 51.7037 23.864 52.2317 24.808C52.7757 25.736 53.0477 26.816 53.0477 28.048C53.0477 29.28 52.7757 30.368 52.2317 31.312C51.7037 32.24 50.9757 32.968 50.0477 33.496C49.1197 34.024 48.0877 34.288 46.9517 34.288ZM46.9517 31.624C47.7517 31.624 48.4477 31.328 49.0397 30.736C49.6317 30.128 49.9277 29.232 49.9277 28.048C49.9277 26.864 49.6317 25.976 49.0397 25.384C48.4477 24.776 47.7597 24.472 46.9757 24.472C46.1597 24.472 45.4557 24.776 44.8637 25.384C44.2877 25.976 43.9997 26.864 43.9997 28.048C43.9997 29.232 44.2877 30.128 44.8637 30.736C45.4557 31.328 46.1517 31.624 46.9517 31.624ZM61.5851 34V17.2H68.3291C70.0731 17.2 71.4011 17.608 72.3131 18.424C73.2411 19.224 73.7051 20.256 73.7051 21.52C73.7051 22.576 73.4171 23.424 72.8411 24.064C72.2811 24.688 71.5931 25.112 70.7771 25.336C71.7371 25.528 72.5291 26.008 73.1531 26.776C73.7771 27.528 74.0891 28.408 74.0891 29.416C74.0891 30.744 73.6091 31.84 72.6491 32.704C71.6891 33.568 70.3291 34 68.5691 34H61.5851ZM64.6571 24.256H67.8731C68.7371 24.256 69.4011 24.056 69.8651 23.656C70.3291 23.256 70.5611 22.688 70.5611 21.952C70.5611 21.248 70.3291 20.696 69.8651 20.296C69.4171 19.88 68.7371 19.672 67.8251 19.672H64.6571V24.256ZM64.6571 31.504H68.0891C69.0011 31.504 69.7051 31.296 70.2011 30.88C70.7131 30.448 70.9691 29.848 70.9691 29.08C70.9691 28.296 70.7051 27.68 70.1771 27.232C69.6491 26.784 68.9371 26.56 68.0411 26.56H64.6571V31.504ZM76.6538 34V22.096H79.3898L79.6778 24.328C80.1098 23.56 80.6938 22.952 81.4297 22.504C82.1818 22.04 83.0618 21.808 84.0698 21.808V25.048H83.2058C82.5338 25.048 81.9338 25.152 81.4058 25.36C80.8778 25.568 80.4618 25.928 80.1578 26.44C79.8698 26.952 79.7258 27.664 79.7258 28.576V34H76.6538ZM90.2734 34.288C89.2494 34.288 88.4094 34.128 87.7534 33.808C87.0974 33.472 86.6094 33.032 86.2894 32.488C85.9694 31.944 85.8094 31.344 85.8094 30.688C85.8094 29.584 86.2414 28.688 87.1054 28C87.9694 27.312 89.2654 26.968 90.9934 26.968H94.0174V26.68C94.0174 25.864 93.7854 25.264 93.3214 24.88C92.8574 24.496 92.2814 24.304 91.5934 24.304C90.9694 24.304 90.4254 24.456 89.9614 24.76C89.4974 25.048 89.2094 25.48 89.0974 26.056H86.0974C86.1774 25.192 86.4654 24.44 86.9614 23.8C87.4734 23.16 88.1294 22.672 88.9294 22.336C89.7294 21.984 90.6254 21.808 91.6174 21.808C93.3134 21.808 94.6494 22.232 95.6254 23.08C96.6014 23.928 97.0894 25.128 97.0894 26.68V34H94.4734L94.1854 32.08C93.8334 32.72 93.3374 33.248 92.6974 33.664C92.0734 34.08 91.2654 34.288 90.2734 34.288ZM90.9694 31.888C91.8494 31.888 92.5294 31.6 93.0094 31.024C93.5054 30.448 93.8174 29.736 93.9454 28.888H91.3294C90.5134 28.888 89.9294 29.04 89.5774 29.344C89.2254 29.632 89.0494 29.992 89.0494 30.424C89.0494 30.888 89.2254 31.248 89.5774 31.504C89.9294 31.76 90.3934 31.888 90.9694 31.888ZM100.021 34V22.096H102.733L102.973 24.112C103.341 23.408 103.869 22.848 104.557 22.432C105.261 22.016 106.085 21.808 107.029 21.808C108.501 21.808 109.645 22.272 110.461 23.2C111.277 24.128 111.685 25.488 111.685 27.28V34H108.613V27.568C108.613 26.544 108.405 25.76 107.989 25.216C107.573 24.672 106.925 24.4 106.045 24.4C105.181 24.4 104.469 24.704 103.909 25.312C103.365 25.92 103.093 26.768 103.093 27.856V34H100.021ZM120.095 34.288C118.975 34.288 117.975 34.016 117.095 33.472C116.215 32.928 115.519 32.184 115.007 31.24C114.495 30.296 114.239 29.224 114.239 28.024C114.239 26.824 114.495 25.76 115.007 24.832C115.519 23.888 116.215 23.152 117.095 22.624C117.975 22.08 118.975 21.808 120.095 21.808C120.991 21.808 121.775 21.976 122.447 22.312C123.119 22.648 123.663 23.12 124.079 23.728V16.72H127.151V34H124.415L124.079 32.296C123.695 32.824 123.183 33.288 122.543 33.688C121.919 34.088 121.103 34.288 120.095 34.288ZM120.743 31.6C121.735 31.6 122.543 31.272 123.167 30.616C123.807 29.944 124.127 29.088 124.127 28.048C124.127 27.008 123.807 26.16 123.167 25.504C122.543 24.832 121.735 24.496 120.743 24.496C119.767 24.496 118.959 24.824 118.319 25.48C117.679 26.136 117.359 26.984 117.359 28.024C117.359 29.064 117.679 29.92 118.319 30.592C118.959 31.264 119.767 31.6 120.743 31.6Z" fill="url(#paint0_linear_6_3917)"/>
<defs>
<linearGradient id="paint0_linear_6_3917" x1="0" y1="0" x2="81.6555" y2="99.2017" gradientUnits="userSpaceOnUse">
<stop stop-color="#4D84FF"/>
<stop offset="1" stop-color="#DE8FFF"/>
</linearGradient>
</defs>
</svg>
